<svg width="32" height="36" viewBox="0 0 32 36" fill="none" xmlns="http://www.w3.org/2000/svg">
<path fill-rule="evenodd" clip-rule="evenodd" d="M16 0C23.1007 0 28.8571 5.75635 28.8571 12.8571C28.8571 17.2058 26.5791 20.9143 24.164 23.6381C21.7346 26.3782 19.0318 28.2752 17.8842 29.0237C17.3017 29.4035 16.6439 29.5714 16 29.5714C15.356 29.5714 14.6982 29.4035 14.1157 29.0237C12.9681 28.2752 10.2653 26.3782 7.83592 23.6381C5.42084 20.9143 3.14281 17.2058 3.14281 12.8571C3.14281 5.75635 8.89916 0 16 0ZM11.5 12.2143C11.5 14.6996 13.5147 16.7143 16 16.7143C18.4852 16.7143 20.5 14.6996 20.5 12.2143C20.5 9.729 18.4852 7.71429 16 7.71429C13.5147 7.71429 11.5 9.729 11.5 12.2143ZM31.4285 29.5714C31.4285 27.8434 29.792 26.2746 27.1295 25.1193C26.9424 25.3435 26.7552 25.5607 26.5691 25.7706C23.8719 28.8126 20.9056 30.8908 19.64 31.716C18.4821 32.4712 17.2007 32.7857 16 32.7857C14.7992 32.7857 13.5178 32.4712 12.3599 31.716C11.0943 30.8908 8.12804 28.8126 5.43087 25.7706C5.2447 25.5607 5.05749 25.3435 4.87029 25.1193C2.20784 26.2746 0.571381 27.8434 0.571381 29.5714C0.571381 33.1218 7.47901 36 16 36C24.5209 36 31.4285 33.1218 31.4285 29.5714Z" fill="white"/>
<g clip-path="url(#clip0_1735_85)">
<path d="M11.1936 19.4965C10.1688 19.4965 9.33679 20.3296 9.33679 21.3555V25.9872H22.4142V21.3544C22.4142 20.3285 21.5832 19.4975 20.5573 19.4975H11.1925L11.1936 19.4965Z" fill="black"/>
<path fill-rule="evenodd" clip-rule="evenodd" d="M10.7515 33.0422V33.6009C10.7515 33.8897 10.8662 34.1667 11.0704 34.3709C11.2747 34.5752 11.5517 34.6899 11.8405 34.6899C12.1294 34.6899 12.4064 34.5752 12.6106 34.3709C12.8148 34.1667 12.9296 33.8897 12.9296 33.6009V33.0945H11.1936C11.0447 33.0948 10.8962 33.0772 10.7515 33.0422ZM18.8214 33.0945V33.6009C18.8214 33.8897 18.9361 34.1667 19.1404 34.3709C19.3446 34.5752 19.6216 34.6899 19.9104 34.6899C20.1993 34.6899 20.4763 34.5752 20.6805 34.3709C20.8848 34.1667 20.9995 33.8897 20.9995 33.6009V33.0422C20.8547 33.0772 20.7063 33.0948 20.5573 33.0945H18.8214Z" fill="black"/>
<path fill-rule="evenodd" clip-rule="evenodd" d="M11.1937 21.13C11.1643 21.13 11.1352 21.1358 11.108 21.1471C11.0808 21.1584 11.0562 21.1749 11.0354 21.1958C11.0147 21.2166 10.9983 21.2414 10.9871 21.2686C10.976 21.2958 10.9703 21.3249 10.9704 21.3543V25.8565H20.7807V21.3543C20.7807 21.2951 20.7571 21.2383 20.7153 21.1965C20.6734 21.1546 20.6166 21.1311 20.5574 21.1311H11.1926L11.1937 21.13ZM9.33684 21.3543C9.33684 20.3284 10.1689 19.4975 11.1937 19.4975H20.5585C21.5844 19.4975 22.4153 20.3284 22.4153 21.3543V31.2375C22.4153 32.2634 21.5844 33.0944 20.5585 33.0944H11.1926C10.7001 33.0944 10.2278 32.8987 9.87961 32.5505C9.53139 32.2023 9.33575 31.73 9.33575 31.2375V21.3543H9.33684Z" fill="#8FBFFA"/>
<path fill-rule="evenodd" clip-rule="evenodd" d="M12.6083 30.3435C12.8972 30.3435 13.1742 30.2288 13.3784 30.0245C13.5827 29.8203 13.6974 29.5433 13.6974 29.2545C13.6974 28.9656 13.5827 28.6886 13.3784 28.4844C13.1742 28.2801 12.8972 28.1654 12.6083 28.1654C12.3195 28.1654 12.0425 28.2801 11.8383 28.4844C11.634 28.6886 11.5193 28.9656 11.5193 29.2545C11.5193 29.5433 11.634 29.8203 11.8383 30.0245C12.0425 30.2288 12.3195 30.3435 12.6083 30.3435ZM19.1427 30.3435C19.4315 30.3435 19.7085 30.2288 19.9128 30.0245C20.117 29.8203 20.2317 29.5433 20.2317 29.2545C20.2317 28.9656 20.117 28.6886 19.9128 28.4844C19.7085 28.2801 19.4315 28.1654 19.1427 28.1654C18.8539 28.1654 18.5768 28.2801 18.3726 28.4844C18.1684 28.6886 18.0536 28.9656 18.0536 29.2545C18.0536 29.5433 18.1684 29.8203 18.3726 30.0245C18.5768 30.2288 18.8539 30.3435 19.1427 30.3435Z" fill="black"/>
</g>
<defs>
<clipPath id="clip0_1735_85">
<rect width="15.2468" height="15.2468" fill="white" transform="translate(8.25214 19.4528)"/>
</clipPath>
</defs>
</svg>
